<?xml version="1.0"?>
<svg version="1.1" xmlns="http://www.w3.org/2000/svg" width="270" height="50" style=""><path fill="#" d="M19.1,34.575l0.375,2.1s1,0.525,2.45,0.525c1.6,0,3.025-0.7,3.025-2.025c0-2.925-8.45-1.625-8.45-7.8c0-3.45,2.725-5.3,6.35-5.3c2.825,0,5.5,1,5.5,1l-0.125,4.55l-2.3,0l-0.625-2.125s-1.125-0.375-2.2-0.375c-1.775,0-2.65,0.775-2.65,1.775c0,2.9,8.425,1.75,8.425,7.625c0,3.75-2.9,5.8-6.75,5.8c-2.825,0-5.575-0.95-5.575-0.95l0-4.8l2.55,0z M34.28775,22.375c0-1.425,1.025-2.25,2.15-2.25c1.3,0,2.1,0.675,2.1,2.25c0,1.475-1.075,2.275-2.1,2.275c-1.35,0-2.15-0.8-2.15-2.275z M38.48775,37.375l1.75,0.625l0,2l-7.5,0l0-2l2-0.625l0-8.125l-2-0.625l0-2l5.75-0.125l0,10.875z M66.9255,38l0,2l-6.775,0l0-2l1.325-0.625l0-5.95c0-1.375-0.4-2.05-1.45-2.05c-1.625,0-2.775,1.3-2.775,1.3l0,6.7l1.3,0.625l0,2l-6.35,0l0-2l1.3-0.625l0-5.95c0-1.375-0.35-2.05-1.425-2.05c-1.625,0-2.8,1.3-2.8,1.3l0,6.7l1.325,0.625l0,2l-7,0l0-2l1.925-0.625l0-8.125l-1.9-0.625l0-2l5.225-0.125l0.175,1.775s2.175-2.025,4.375-2.025c1.775,0,2.875,0.825,3.45,2.15c0.425-0.425,2.3-2.15,4.525-2.15c2.625,0,3.85,1.7,3.85,4.5l0,6.625z M75.03825,20.625l0,6.95c0.425-0.325,1.675-1.325,3.575-1.325c3.35,0,5.125,2.425,5.125,6.625c0,4.7-2.45,7.425-7.25,7.425c-2.75,0-5.2-0.55-5.2-0.55l0-16.425l-1.875-0.5l0-2z M75.03825,30.375l0,6.725s0.575,0.2,1.85,0.2c2.175,0,2.975-1.65,2.975-4.175c0-2.5-0.7-3.875-2.45-3.875c-1.5,0-2.375,1.125-2.375,1.125z M95.876,40l-0.45-1.625s-1.925,1.875-4.05,1.875c-2.425,0-3.9-1.425-3.9-3.925c0-2.95,2.225-4.125,6.025-4.125l1.75,0l0-1.375c0-1.275-0.675-1.825-1.925-1.825c-1.275,0-2.2,0.375-2.2,0.375l-0.375,1.575l-2.25,0l-0.175-3.7s3.025-1,5.425-1c3.8,0,5.25,1.325,5.25,4.95l0,6.175l1.875,0.45l0,2z M95.251,34.325l-1.425,0c-1.95,0-2.725,0.5-2.725,1.625c0,0.95,0.525,1.5,1.475,1.5c1.325,0,2.675-1.45,2.675-1.45l0-1.675z M113.7265,37.125l0-11.75l-1.875-0.75l0-2.125l5.75-0.125l2.375,0c5,0,7.95,2.95,7.95,8.575s-3.25,9.05-8.325,9.05l-7.75,0l0-2.125z M117.6015,37l2.075,0c2.425,0,4.05-1.425,4.05-5.925c0-4.2-1.425-5.7-3.875-5.7l-2.25,0l0,11.625z M143.98925,34.075l-8.3,0c0.15,2,1.3,3.175,3.025,3.175c2.075,0,4.2-1.175,4.2-1.175l1.075,2.075s-2.5,2.1-5.7,2.1c-4.3,0-6.5-2.5-6.5-6.75c0-4.375,2.475-7.25,6.675-7.25c3.725,0,5.675,2.3,5.675,5.875c0,0.95-0.15,1.875-0.15,1.95z M135.73925,31.75l4.525,0c0-1.425-0.6-2.5-2.05-2.5c-1.4,0-2.275,1.025-2.475,2.5z M155.052,28.625l0-2l6.55-0.125l0,2.125l-1.425,0.325l-4.025,11.05l-4.125,0l-3.95-10.975l-1.2-0.4l0-2l6.55-0.125l0,2.125l-1.4,0.25l2.275,7.375l2.2-7.3z M176.53975,34.075l-8.3,0c0.15,2,1.3,3.175,3.025,3.175c2.075,0,4.2-1.175,4.2-1.175l1.075,2.075s-2.5,2.1-5.7,2.1c-4.3,0-6.5-2.5-6.5-6.75c0-4.375,2.475-7.25,6.675-7.25c3.725,0,5.675,2.3,5.675,5.875c0,0.95-0.15,1.875-0.15,1.95z M168.28975,31.75l4.525,0c0-1.425-0.6-2.5-2.05-2.5c-1.4,0-2.275,1.025-2.475,2.5z M185.5775,37.375l2.25,0.625l0,2l-8.025,0l0-2l2-0.625l0-14.05l-2-0.5l0-2l5.775-0.2l0,16.75z M197.31525,26.25c4.05,0,6.3,2.45,6.3,6.75c0,4.5-2.625,7.25-6.675,7.25c-4.075,0-6.375-2.125-6.375-6.875c0-4.5,2.675-7.125,6.75-7.125z M197.19025,29.25c-1.825,0-2.75,1-2.75,4c0,2.75,0.8,4,2.625,4c1.8,0,2.675-1.125,2.675-4.125c0-2.55-0.75-3.875-2.55-3.875z M206.728,26.625l5.325-0.125l0.225,1.4s1.7-1.65,3.7-1.65c3.475,0,5.2,2.575,5.2,6.625c0,4.625-2.2,7.375-6.575,7.375c-0.725,0-1.475-0.1-2.125-0.25l0,3.175l2.375,0.575l0,2l-8.075,0l0-2l1.95-0.575l0-13.925l-2-0.625l0-2z M212.478,30.625l0,6.375c0.4,0.175,1,0.375,1.95,0.375c2.15,0,2.875-1.5,2.875-4.05c0-2.525-0.675-4.075-2.5-4.075c-1.625,0-2.325,1.375-2.325,1.375z M236.99075,34.075l-8.3,0c0.15,2,1.3,3.175,3.025,3.175c2.075,0,4.2-1.175,4.2-1.175l1.075,2.075s-2.5,2.1-5.7,2.1c-4.3,0-6.5-2.5-6.5-6.75c0-4.375,2.475-7.25,6.675-7.25c3.725,0,5.675,2.3,5.675,5.875c0,0.95-0.15,1.875-0.15,1.95z M228.74075,31.75l4.525,0c0-1.425-0.6-2.5-2.05-2.5c-1.4,0-2.275,1.025-2.475,2.5z M245.8785,26.5l0.225,1.725s1.8-1.975,3.475-1.975c1.375,0,2.325,0.45,2.325,0.45l-0.2,4.8l-2.25,0l-0.375-2.125c-1.45,0-2.7,1.4-2.7,1.4l0,6.6l2.5,0.625l0,2l-8.25,0l0-2l2-0.625l0-8.125l-2-0.625l0-2z M256.96625,35.625l0.2,1.625s0.875,0.25,2.1,0.25c1.375,0,2.05-0.425,2.05-1.225c0-2.05-6.675-1.3-6.675-5.75c0-3.125,2.5-4.275,5.15-4.275c2.25,0,4.65,0.75,4.65,0.75l-0.1,3.75l-2.125,0l-0.375-1.5s-0.725-0.25-1.725-0.25c-1.075,0-1.725,0.45-1.725,1.275c0,2.025,6.675,1.15,6.675,5.475c0,2.875-2.325,4.5-5.75,4.5c-2.375,0-4.6-0.55-4.6-0.55l0-4.075l2.25,0z"/><path fill="#" d=""/></svg>
