<svg xmlns="http://www.w3.org/2000/svg" width="38.305" height="47.187" viewBox="0 0 38.305 47.187"><defs><style>.a{fill:#1b1d23;}</style></defs><path class="a" d="M20,48h0L5.858,33.941A16.06,16.06,0,0,1,2.1,27.68a24.265,24.265,0,0,1-1.253-7.8,24.267,24.267,0,0,1,1.252-7.8A16.063,16.063,0,0,1,5.858,5.823a16.306,16.306,0,0,1,6.309-3.757,25.118,25.118,0,0,1,15.665,0,16.306,16.306,0,0,1,6.31,3.757A16.063,16.063,0,0,1,37.9,12.085a24.271,24.271,0,0,1,1.252,7.8,24.268,24.268,0,0,1-1.253,7.8,16.06,16.06,0,0,1-3.757,6.26L20,48Zm.329-33.007a4.563,4.563,0,1,0,4.59,4.563A4.582,4.582,0,0,0,20.328,14.993Z" transform="translate(-0.848 -0.813)"/></svg>